# xmcd CD database file
#
# Track frame offsets:
#	150
#	27825
#	43050
#	81902
#
# Disc length: 1184 seconds
#
# Revision: 0
# Processed by: cddbd v1.5.1PL0 Copyright (c) Steve Scherf et al.
# Submitted via: CDex 1.51
#
DISCID=29049e04
DTITLE=MOON CHILD - Hallelujah in the snow
DYEAR=1900
DGENRE=JPop
TTITLE0=Hallelujah in the snow
TTITLE1=冬の虫
TTITLE2=Hallelujah in the snow (instrumental)
TTITLE3=Hallelujah in the snow data
EXTD=
EXTT0=
EXTT1=
EXTT2=
EXTT3=
PLAYORDER=
